<svg xmlns="http://www.w3.org/2000/svg" xmlns:xlink="http://www.w3.org/1999/xlink" width="96" height="96" viewBox="0 0 96 96">
  <defs>
    <filter id="Ellipse_1" x="0" y="0" width="96" height="96" filterUnits="userSpaceOnUse">
      <feOffset dy="10" input="SourceAlpha"/>
      <feGaussianBlur stdDeviation="10" result="blur"/>
      <feFlood flood-color="#f10000" flood-opacity="0.4"/>
      <feComposite operator="in" in2="blur"/>
      <feComposite in="SourceGraphic"/>
    </filter>
  </defs>
  <g id="Group_9" data-name="Group 9" transform="translate(-197.5 -1183.5)">
    <g id="Union_1" data-name="Union 1" transform="translate(215.5 1194.5)" fill="#fff">
      <path d="M23.686,54H8a8,8,0,0,1-8-8V8A8,8,0,0,1,8,0H52a8,8,0,0,1,8,8V46a8,8,0,0,1-8,8H36.314L30,60.314Z" stroke="none"/>
      <path d="M 29.99973106384277 57.48511123657227 L 34.89933013916016 52.58575057983398 L 35.48511123657227 52 L 36.31351089477539 52 L 52.00020217895508 52 C 55.30867004394531 52 58.00030136108398 49.30837249755859 58.00030136108398 45.99990081787109 L 58.00030136108398 8.000102043151855 C 58.00030136108398 4.69163179397583 55.30867004394531 2.000001668930054 52.00020217895508 2.000001668930054 L 8.000101089477539 2.000001668930054 C 4.691630840301514 2.000001668930054 2.000000715255737 4.69163179397583 2.000000715255737 8.000102043151855 L 2.000000715255737 45.99990081787109 C 2.000000715255737 49.30837249755859 4.691630840301514 52 8.000101089477539 52 L 23.68620109558105 52 L 24.5146312713623 52 L 25.10041046142578 52.58579254150391 L 29.99973106384277 57.48511123657227 M 29.99970054626465 60.31350326538086 L 23.68620109558105 54 L 8.000101089477539 54 C 3.582000732421875 54 6.805419729971618e-07 50.41800308227539 6.805419729971618e-07 45.99990081787109 L 6.805419729971618e-07 8.000102043151855 C 6.805419729971618e-07 3.582001686096191 3.582000732421875 1.632690441510931e-06 8.000101089477539 1.632690441510931e-06 L 52.00020217895508 1.632690441510931e-06 C 56.41830062866211 1.632690441510931e-06 60.00030136108398 3.582001686096191 60.00030136108398 8.000102043151855 L 60.00030136108398 45.99990081787109 C 60.00030136108398 50.41800308227539 56.41830062866211 54 52.00020217895508 54 L 36.31351089477539 54 L 29.99970054626465 60.31350326538086 Z" stroke="none" fill="rgba(241,0,0,0.2)"/>
    </g>
    <g transform="matrix(1, 0, 0, 1, 197.5, 1183.5)" filter="url(#Ellipse_1)">
      <circle id="Ellipse_1-2" data-name="Ellipse 1" cx="18" cy="18" r="18" transform="translate(30 20)" fill="#f10000"/>
    </g>
    <g id="like" transform="translate(236.5 1184.5)">
      <g id="Group_13" data-name="Group 13" transform="translate(0 30)">
        <path id="Path_10" data-name="Path 10" d="M13.219,30a4.262,4.262,0,0,0-2.662.92A6.063,6.063,0,0,0,9,32.793,6.062,6.062,0,0,0,7.443,30.92,4.262,4.262,0,0,0,4.781,30,4.886,4.886,0,0,0,0,35.186c0,3.194,2.564,5.379,6.447,8.688.659.562,1.406,1.2,2.183,1.878a.563.563,0,0,0,.741,0c.777-.679,1.524-1.316,2.184-1.878C15.436,40.565,18,38.38,18,35.186A4.886,4.886,0,0,0,13.219,30Z" transform="translate(0 -30)" fill="#fff"/>
      </g>
    </g>
  </g>
</svg>
