<svg id="Group_11564" data-name="Group 11564" xmlns="http://www.w3.org/2000/svg" width="423.846" height="148.58" viewBox="0 0 423.846 148.58">
  <path id="Path_146" data-name="Path 146" d="M10.774,8.53Q13.3,2.7,17.342.9a10.7,10.7,0,0,1,8.607.017,21.992,21.992,0,0,1,8.668,6.829,42.7,42.7,0,0,1,6.621,12.754A48.476,48.476,0,0,1,43.931,36.21q.016,7.927-3.973,13.2a8.534,8.534,0,0,1-6.312,3.446A11.464,11.464,0,0,1,26.5,50.58q-.54-.36-1.051-.781,2.231,6.4,4.494,13.067.623,2.679-2.047,4.587A11.255,11.255,0,0,1,22,69.58q-3.232.216-4.308-2.229Q11.963,50.218,7.368,34.84T.053,9.73q-.366-1.991,1.8-3.438A9.7,9.7,0,0,1,6.561,4.648q2.542-.2,3.394,1.5Q10.344,7.276,10.774,8.53ZM30.933,45.651q2.474-1.13,3.009-6.217a40.743,40.743,0,0,0-.7-11.663A47.116,47.116,0,0,0,29.262,15.6q-2.747-5.591-6.829-7.7-3.061-1.268-4.994.465a8.689,8.689,0,0,0-2.6,4.826,12.438,12.438,0,0,0,.1,5.918,54.647,54.647,0,0,0,1.594,5.251q1.034,2.934,2.017,5.382t1.407,3.373q.641,1.479,2.483,4.718A33.242,33.242,0,0,0,26.6,43.647Q28.909,46.219,30.933,45.651Z" transform="translate(20.348 69.179) rotate(17)" fill="#ec1c24"/>
  <path id="Path_147" data-name="Path 147" d="M37.464,12.894q.138,1.391-1.909,2.753a10.272,10.272,0,0,1-4.342,1.677q-2.295.314-2.869-1.422A9.365,9.365,0,0,0,26.3,11.768,6.286,6.286,0,0,0,22.772,9.59a4.922,4.922,0,0,0-4.127,1.278q-2.172,1.664-2.555,6.46T18.6,30.711q3,8.457,7.2,20.892a4.1,4.1,0,0,1-1.857,4.507,10.113,10.113,0,0,1-5.609,2.061q-3.1.179-4.134-2.281Q4.579,26.7.034,9.064A3.159,3.159,0,0,1,1.812,5.871a9.248,9.248,0,0,1,4.5-1.461q2.439-.142,3.208,1.439,1.007,2.848,2.02,5.55A13.114,13.114,0,0,1,14.719,4.39,13.23,13.23,0,0,1,20.73.582a11.023,11.023,0,0,1,7.738.231,13.536,13.536,0,0,1,5.685,4.795A22.343,22.343,0,0,1,37.464,12.894Z" transform="translate(60.685 68.298) rotate(17)" fill="#ec1c24"/>
  <path id="Path_148" data-name="Path 148" d="M44.271,42.939a3.924,3.924,0,0,1-1.686,4.286,11.083,11.083,0,0,1-5.391,2.307,5.041,5.041,0,0,1-4.682-1.255,16.479,16.479,0,0,1-2.227,2.112q-5.538,4.261-11.138,3.835A15.587,15.587,0,0,1,9.3,49.735,20.6,20.6,0,0,1,3.573,39.051a23.42,23.42,0,0,1-.055-9.229,16.909,16.909,0,0,1,3.762-7.9,14.237,14.237,0,0,1,7.926-4.509q5.71-1.017,9.635,1.518a40.72,40.72,0,0,0-2.3-5.37,11.661,11.661,0,0,0-4.126-4.624,7.065,7.065,0,0,0-4.44-1.09,3.887,3.887,0,0,0-3.235,2.178Q9.89,11.857,11.033,15a2.292,2.292,0,0,1-.958,2.346,9.424,9.424,0,0,1-3.337,1.921,7.484,7.484,0,0,1-3.821.395A3,3,0,0,1,.5,17.432a12.347,12.347,0,0,1,.586-8.613,14.217,14.217,0,0,1,5.566-6.06A18.938,18.938,0,0,1,14.907.06Q21.6-.4,25.787,2.608a21.85,21.85,0,0,1,6.721,7.969,72.892,72.892,0,0,1,4.3,10.307Q40.081,30.4,43.372,40.3,43.828,41.64,44.271,42.939ZM12.623,39.745q.559,6.09,4.014,8.026a8.276,8.276,0,0,0,7.5.3,12.466,12.466,0,0,0,6.392-6.17l.013.044q-.756-3.113-1.484-6.62l-.107-.351a31.283,31.283,0,0,0-1.871-5.691,12,12,0,0,0-3.62-4.994q-2.244-1.73-5.272.574a15.281,15.281,0,0,0-4.148,6.325A21.118,21.118,0,0,0,12.623,39.745Z" transform="translate(98.974 71.295) rotate(17)" fill="#ec1c24"/>
  <path id="Path_149" data-name="Path 149" d="M25,49.018c.278.809.56,1.629.845,2.466Q26.5,54.108,23.97,56a10.217,10.217,0,0,1-5.631,2.069q-3.1.179-4.135-2.282Q4.578,26.6.034,8.959-.25,7.087,1.812,5.766A9.247,9.247,0,0,1,6.313,4.3q2.443-.142,3.211,1.439Q11.08,10.1,12.647,14.3q.986,2.614,2.012,5.361A36.287,36.287,0,0,1,16.154,7.6a10.533,10.533,0,0,1,6-6.983,9.006,9.006,0,0,1,5.182-.4A11.685,11.685,0,0,1,31.9,2.486a37.051,37.051,0,0,1,8.9,11.68A110.856,110.856,0,0,1,47.48,29.96q2.764,8.239,4.278,14.326.394,2.556-2.265,4.342a10.732,10.732,0,0,1-5.735,1.886q-3.074.1-3.947-2.457c-.1-.321-.218-.823-.365-1.516q-.635-2.718-1.926-7.681T34.5,28.192q-1.736-5.708-3.757-10.638a31.819,31.819,0,0,0-4.147-7.6Q24.463,7.275,22.4,8.334q-2.33,1.613-2.562,7.06a66.873,66.873,0,0,0,.753,12.315q.984,6.867,2.342,12.907T25,49.018Z" transform="translate(135.825 68.541) rotate(17)" fill="#ec1c24"/>
  <path id="Path_150" data-name="Path 150" d="M35.995,2.918A2.947,2.947,0,0,1,38.349.365a7.531,7.531,0,0,1,4.32-.094,2.961,2.961,0,0,1,2.444,2.46q.468,7.837.147,21.888a239.3,239.3,0,0,1-2.686,29.869,4.718,4.718,0,0,1-2.72,3A12.678,12.678,0,0,1,34.978,58.9,4.97,4.97,0,0,1,31.17,58,238.426,238.426,0,0,1,12.324,34.643Q4.237,23.124.27,16.347a3.017,3.017,0,0,1,.8-3.492,8.682,8.682,0,0,1,3.9-2.5,3,3,0,0,1,3.495.73q2.285,3.273,9.018,12T32.34,41.4Q33.932,29.014,34.9,17.968T35.995,2.918Z" transform="translate(175.707 63.217) rotate(17)" fill="#ec1c24"/>
  <path id="Path_151" data-name="Path 151" d="M33.922,36.623a1.991,1.991,0,0,1,1.877-.738,7.062,7.062,0,0,1,3.247,1.092,6.515,6.515,0,0,1,2.565,2.782,2.884,2.884,0,0,1,.274,2.474,28.788,28.788,0,0,1-7.876,8.291,21.95,21.95,0,0,1-10.268,3.953,18.177,18.177,0,0,1-11.034-2.431A22.552,22.552,0,0,1,5.5,45.156,31.957,31.957,0,0,1,.665,33.006,37.582,37.582,0,0,1,.585,19.365,27.047,27.047,0,0,1,6.952,6.348,18.843,18.843,0,0,1,18.445.132a12.566,12.566,0,0,1,8.989,1.907,10.794,10.794,0,0,1,4.374,7.8,15.893,15.893,0,0,1-.675,6.824,26.7,26.7,0,0,1-3.291,6.709A49.262,49.262,0,0,1,15.923,35.254q-.518.349-.988.684c-.079.056-.171.116-.279.179q-.74.559-1.5,1.029c-.236.168-.488.34-.752.517a22.39,22.39,0,0,0,2.053,5.108A11.77,11.77,0,0,0,17.8,46.63a5.682,5.682,0,0,0,5.789.418,17.965,17.965,0,0,0,5.773-4.359A36.924,36.924,0,0,0,33.922,36.623ZM21.584,6.061Q17.361,7.1,14.5,13.586a40.169,40.169,0,0,0-3.194,14.659,34.869,34.869,0,0,0,9.518-6.735,20.183,20.183,0,0,0,5.6-9.085,6.271,6.271,0,0,0-.639-4.7Q24.573,5.68,21.584,6.061Z" transform="translate(225.329 70.391) rotate(17)" fill="#ec1c24"/>
  <path id="Path_152" data-name="Path 152" d="M37.464,12.894q.136,1.391-1.91,2.753a10.275,10.275,0,0,1-4.342,1.678q-2.295.312-2.869-1.423A9.348,9.348,0,0,0,26.3,11.769,6.278,6.278,0,0,0,22.771,9.59a4.931,4.931,0,0,0-4.129,1.278q-2.17,1.664-2.551,6.461T18.6,30.71q3,8.457,7.2,20.892a4.1,4.1,0,0,1-1.857,4.507,10.117,10.117,0,0,1-5.608,2.062q-3.1.177-4.135-2.282Q4.578,26.7.034,9.064-.248,7.191,1.812,5.871a9.22,9.22,0,0,1,4.5-1.461q2.443-.144,3.209,1.438Q10.531,8.7,11.542,11.4a13.1,13.1,0,0,1,3.175-7.009A13.228,13.228,0,0,1,20.73.583a11.016,11.016,0,0,1,7.738.231,13.542,13.542,0,0,1,5.685,4.794A22.385,22.385,0,0,1,37.464,12.894Z" transform="translate(260.589 68.679) rotate(17)" fill="#ec1c24"/>
  <path id="Path_153" data-name="Path 153" d="M47.873,25.577a5.442,5.442,0,0,1,1.06,2.233,1.553,1.553,0,0,1-.458,1.79,33.4,33.4,0,0,1-6.8,2.926,31.485,31.485,0,0,1-1.2,8.631A22.274,22.274,0,0,1,36.606,48.9a15.06,15.06,0,0,1-7,4.968,17.363,17.363,0,0,1-12.39-.442,24.429,24.429,0,0,1-9.757-7.979A38.5,38.5,0,0,1,2.154,35.206,38.654,38.654,0,0,1,.018,23.766,27.562,27.562,0,0,1,2.927,10.054,19.131,19.131,0,0,1,13.273,1.01,14.346,14.346,0,0,1,23.559.9a14.746,14.746,0,0,1,7.454,6.29,24.273,24.273,0,0,1,6.834,8.581,36.318,36.318,0,0,1,3.382,10.583l.09.929A36.3,36.3,0,0,0,46.3,24.955C46.835,24.729,47.361,24.937,47.873,25.577ZM27.677,48.29a6.889,6.889,0,0,0,5.059-2.778,16.165,16.165,0,0,0,2.759-5.785,28.979,28.979,0,0,0,.981-6.053q-8.016,1.144-13.758-3.134T15.76,18.173A15.086,15.086,0,0,1,16.5,10.76a9.433,9.433,0,0,1,4.8-5.209,6.67,6.67,0,0,0-2.321-.323,5.989,5.989,0,0,0-2.233.751,10.241,10.241,0,0,0-4.757,6.915,30.4,30.4,0,0,0-.409,10.925,47.126,47.126,0,0,0,3.026,11.7,28.969,28.969,0,0,0,5.646,9.228A9.951,9.951,0,0,0,27.677,48.29ZM25.7,10.139a2.944,2.944,0,0,0-1.953.019,3.946,3.946,0,0,0-2.3,2.035,7.6,7.6,0,0,0-.7,3.366q.156,6.645,4.518,10.311t10.828,2.613l-.013-.043a.178.178,0,0,0,.143,0l.088-.026a35.292,35.292,0,0,0-1.736-6.9,28.944,28.944,0,0,0-3.6-7.125A10.709,10.709,0,0,0,25.7,10.139Z" transform="translate(303.326 70.151) rotate(17)" fill="#ec1c24"/>
  <path id="Path_154" data-name="Path 154" d="M37.463,12.894q.136,1.391-1.91,2.755a10.284,10.284,0,0,1-4.34,1.677q-2.293.312-2.869-1.423A9.364,9.364,0,0,0,26.3,11.768,6.285,6.285,0,0,0,22.77,9.59a4.92,4.92,0,0,0-4.126,1.278q-2.174,1.664-2.555,6.461T18.6,30.71q3,8.457,7.2,20.892a4.094,4.094,0,0,1-1.856,4.507,10.116,10.116,0,0,1-5.61,2.061q-3.1.179-4.133-2.281Q4.576,26.7.034,9.064-.248,7.192,1.811,5.871a9.257,9.257,0,0,1,4.5-1.461q2.441-.142,3.208,1.439Q10.53,8.7,11.541,11.4A13.113,13.113,0,0,1,14.716,4.39,13.228,13.228,0,0,1,20.728.583a11.016,11.016,0,0,1,7.738.23,13.549,13.549,0,0,1,5.686,4.795A22.339,22.339,0,0,1,37.463,12.894Z" transform="translate(341.84 68.834) rotate(17)" fill="#ec1c24"/>
  <path id="Path_155" data-name="Path 155" d="M33.922,36.622a2,2,0,0,1,1.877-.738,7.081,7.081,0,0,1,3.247,1.094,6.512,6.512,0,0,1,2.566,2.782,2.887,2.887,0,0,1,.273,2.474,28.77,28.77,0,0,1-7.876,8.291,21.935,21.935,0,0,1-10.267,3.952,18.161,18.161,0,0,1-11.036-2.431A22.547,22.547,0,0,1,5.5,45.156,31.958,31.958,0,0,1,.665,33.006,37.582,37.582,0,0,1,.585,19.365,27.062,27.062,0,0,1,6.953,6.347,18.851,18.851,0,0,1,18.445.132a12.558,12.558,0,0,1,8.989,1.907,10.79,10.79,0,0,1,4.374,7.8,15.874,15.874,0,0,1-.675,6.824,26.762,26.762,0,0,1-3.29,6.709,49.267,49.267,0,0,1-11.92,11.885c-.345.232-.673.461-.987.684-.079.056-.173.114-.281.179-.492.371-.995.716-1.5,1.029q-.355.251-.751.517a22.438,22.438,0,0,0,2.052,5.108A11.772,11.772,0,0,0,17.8,46.63a5.685,5.685,0,0,0,5.789.418,17.95,17.95,0,0,0,5.773-4.359A36.874,36.874,0,0,0,33.922,36.622ZM21.584,6.061Q17.361,7.105,14.5,13.586A40.113,40.113,0,0,0,11.31,28.245a34.909,34.909,0,0,0,9.517-6.735,20.2,20.2,0,0,0,5.6-9.085,6.276,6.276,0,0,0-.64-4.7Q24.573,5.68,21.584,6.061Z" transform="translate(383.624 70.692) rotate(17)" fill="#ec1c24"/>
  <g id="Group_11568" data-name="Group 11568" transform="translate(110.716)">
    <path id="Path_156" data-name="Path 156" d="M19.74,55.279Q16,56.417,11.385,46.593l-.179-.417A44.016,44.016,0,0,1,9.05,41.322,65.14,65.14,0,0,1,6.357,34.01l-.943-3.279-.04-.3a5.806,5.806,0,0,1-.981.4,2.983,2.983,0,0,1-1.271.125,3.456,3.456,0,0,1-2.436-.94,2.634,2.634,0,0,1-.561-.982,1.983,1.983,0,0,1,.057-1.539q.584-1.019,3.869-3.325a37.767,37.767,0,0,1-.461-7.047A26.248,26.248,0,0,1,4.921,9.583a15.266,15.266,0,0,1,6.611-8.459A13.731,13.731,0,0,1,13.989.062Q16.443-.316,17.027,1.6a3.315,3.315,0,0,1-1.108,3.431l-.308.2a4.83,4.83,0,0,0-2.066,1.834,14.961,14.961,0,0,0-1.953,6.521,27.181,27.181,0,0,0,.165,6.244q5.02-.738,5.882,2.1.67,2.207-3.527,4.27l-1,.513q.29,1.12.639,2.27a110.99,110.99,0,0,0,4.595,11.509q1.952,4.181,3.164,7.485Q23.1,54.261,19.74,55.279Z" transform="translate(16.197 2.288) rotate(17)" fill="#00a551"/>
    <path id="Path_157" data-name="Path 157" d="M21.3,41.892a8.771,8.771,0,0,1-1.818.236q-2.143.025-4.978-4.992L12.627,33.72l-1.844-3.479q-.725-1.354-2.352-4.637-1.564-3.088-2.957-6.287-.713-1.827-1.46-3.595Q2.008,10.667.683,6.819L.054,4.756A3.011,3.011,0,0,1,.9,2.006,6.529,6.529,0,0,1,3.746.328,6.5,6.5,0,0,1,7.07.134,2.83,2.83,0,0,1,9.2,1.874a9.015,9.015,0,0,0,.339.945c.121.279.236.577.349.891s.234.629.365.939L10.818,6l.964,2.487.087-.236a14.285,14.285,0,0,1,3.012-5.109,7.358,7.358,0,0,1,3.127-1.791A10.6,10.6,0,0,1,23.681,1.2a17.214,17.214,0,0,1,4.225,1.994,16.5,16.5,0,0,1,2.946,2.962l1.574,2.248L33.9,11a16.443,16.443,0,0,1,1.1,2.76,5.664,5.664,0,0,1,.229,2.135,1.66,1.66,0,0,1-.553,1.373,5.442,5.442,0,0,0-.809.877l-.512.734-2.362,1.031a3.748,3.748,0,0,0-.852-.214l-1.365-.005a1.431,1.431,0,0,1-.5,0,3.187,3.187,0,0,1-.8-.491,10.665,10.665,0,0,1-2.785-3.981,21.771,21.771,0,0,0-1.34-2.688l-.44-.757q-1.654-2.858-3.286-2.359t-2.795,4.1a9.9,9.9,0,0,0-.486,2.717,10.712,10.712,0,0,0-.247,2.122l-.052.173a3.158,3.158,0,0,1,.314.691l2.44,5.448.751,1.609.853,1.944.736,1.558a.54.54,0,0,0,.121.227,61.38,61.38,0,0,1,2.82,6.7,4.424,4.424,0,0,1-.77,3.855A4.236,4.236,0,0,1,21.3,41.892Z" transform="translate(28.111 13.766) rotate(17)" fill="#00a551"/>
    <path id="Path_158" data-name="Path 158" d="M20.61,46.078a14.592,14.592,0,0,1-5.935.491,13.041,13.041,0,0,1-6.283-2.551q-4.631-3.68-6.834-10.933a36.318,36.318,0,0,1-1.54-8.869,29.889,29.889,0,0,1,.658-7.6A25.59,25.59,0,0,1,3.194,10.06,23.017,23.017,0,0,1,7.255,4.6a16.831,16.831,0,0,1,4.911-3.433L14.854.355A11.046,11.046,0,0,1,17.58,0a10.887,10.887,0,0,1,8.989,5.243A13.35,13.35,0,0,1,28.141,8.7a15.51,15.51,0,0,1,.5,6.824,21.279,21.279,0,0,1-1.633,5.847,15.237,15.237,0,0,1-1.362,2.775A33.385,33.385,0,0,1,17.2,33.634a18.508,18.508,0,0,1-4.464,2.405.53.53,0,0,1,.154.162c.06.086.126.19.2.307a6.971,6.971,0,0,0,1.477,1.231,4.918,4.918,0,0,0,4.06.76,7.291,7.291,0,0,0,3.248-2.087q.847-.836,1.585-1.688A17.21,17.21,0,0,0,24.82,33a15.565,15.565,0,0,1,2.335-3.018l.278-.294a8.408,8.408,0,0,1,1.444-.6,7.015,7.015,0,0,1,2.309-.256q1.3.051,2.213,2.188a7.415,7.415,0,0,1-.3,2.555A10.4,10.4,0,0,1,32.026,36a27.065,27.065,0,0,1-8.446,8.805A14.963,14.963,0,0,1,20.61,46.078ZM10.02,30.726a.2.2,0,0,0,.129-.091,8.644,8.644,0,0,0,1.89-1.205,28.979,28.979,0,0,0,6.378-8.02,22.435,22.435,0,0,0,1.717-4.192,11.854,11.854,0,0,0,.009-5.669,6.615,6.615,0,0,0-1.783-2.764,1.819,1.819,0,0,0-1.256-.51l.192-.058-.913.278.673-.2a4.135,4.135,0,0,0-1.244.221,2.942,2.942,0,0,0-.773.391l1.344-.408a8.347,8.347,0,0,0-3.63,2.729A17.644,17.644,0,0,0,8.862,20.69,25.331,25.331,0,0,0,10.02,30.726Z" transform="translate(66.731 10.787) rotate(17)" fill="#00a551"/>
    <path id="Path_159" data-name="Path 159" d="M25.281,43.922a17.143,17.143,0,0,1-10.543,0,15.231,15.231,0,0,1-4.59-2.33,9.189,9.189,0,0,1-2.94-3.987q-.251-3.07,1.67-3.653c.064-.019.462-.114,1.2-.286s2,.118,3.8.865a13.056,13.056,0,0,0,2.562,1.531l.361.152a6.761,6.761,0,0,0,1.56.469,8.776,8.776,0,0,0,4.605-.034,5.31,5.31,0,0,0,3.083-2.457l-.038-.984a2.75,2.75,0,0,0-.113-.544A4.39,4.39,0,0,0,24.256,30.7a13.064,13.064,0,0,0-3.166-1.61l-.61-.286-1.651-.6-2.218-.742-.852-.214c-.536-.153-1.1-.294-1.7-.427a25.509,25.509,0,0,1-2.694-.756l-.3-.118a24.639,24.639,0,0,1-2.547-.958,15.755,15.755,0,0,1-4.965-3.477A12.74,12.74,0,0,1,.525,16.295,13.076,13.076,0,0,1,.341,9.637a13.181,13.181,0,0,1,2.8-5.7A11.373,11.373,0,0,1,8.635.51a10.665,10.665,0,0,1,6.621.034A9.355,9.355,0,0,1,18.947,3.2,7.509,7.509,0,0,1,20.6,6.055a6.049,6.049,0,0,1-.24,4.216,4.439,4.439,0,0,1-2.151,2.07c-.034.01-.245.058-.64.142s-1.271-.33-2.633-1.245a.852.852,0,0,1-.352-.469l-.205-.673-.2-.673a1.205,1.205,0,0,0-.195-.466c-.155-.162-.255-.262-.3-.3a.833.833,0,0,0-.131-.091c-.043-.022-.086-.044-.126-.068a2.756,2.756,0,0,0-2.083-.469A3.055,3.055,0,0,0,9.267,10.7a5.778,5.778,0,0,0,.122,2.481,3.432,3.432,0,0,0,.682,1.209,7.547,7.547,0,0,0,3.56,2.222,13.986,13.986,0,0,0,2.316.714,5.6,5.6,0,0,1,.852.214l2.665.658Q22.976,19.235,24,19.66a26.527,26.527,0,0,1,5.138,2.582,13.7,13.7,0,0,1,5.533,7.342,10.653,10.653,0,0,1,.442,2.488q.337,5.772-4.733,9.463A19.165,19.165,0,0,1,25.281,43.922Z" transform="translate(96.357 15.816) rotate(17)" fill="#00a551"/>
    <path id="Path_160" data-name="Path 160" d="M25.78,61.822A4.506,4.506,0,0,1,22.8,61.6a4.277,4.277,0,0,1-2.382-2.922q-.752-1.605-2.242-5.22t-2.343-6.081l-.67-1.686-1.925-5.133q-1.946-5.022-2.76-7.187T9.2,29.667q-1.677-4.315-2.753-7.346-1.82-4.954-2.509-7.052l-1.17-3.161Q1.527,8.55.873,6.913L.269,5.1A8.382,8.382,0,0,1,0,3.872l.021-.109a1.559,1.559,0,0,1,.051-.7A7.092,7.092,0,0,1,3.579.111Q6.126-.662,8.256,3.937,9.1,5.673,10.2,8.435q.684,1.574,1.23,3.194l.358.834q.927,2.71,1.516,4.13t1.138,2.881q.974,2.692,1.362,3.624l1.29,3.387a15.247,15.247,0,0,0,.608,1.652l.014.047,1.792-2.905,1.1-1.907a14.7,14.7,0,0,0,1.005-1.879q.6-1.126.839-1.723a9.375,9.375,0,0,1,.76-1.646,4.988,4.988,0,0,1,2.278-1.479A4.412,4.412,0,0,1,30.4,17.775a2.316,2.316,0,0,1,.545.936,4.857,4.857,0,0,1-.747,3.582,23.655,23.655,0,0,1-1.82,3.857l.016.048L26.91,28.749l-.943,1.387.078.082a15.236,15.236,0,0,1,3.108,2.465q.031.1,2.113,2.295,2.648,3.185,3.77,4.469t2.655,2.866a7.153,7.153,0,0,0,4.9,1.973,3.942,3.942,0,0,1,1.692.3,1.968,1.968,0,0,1,.948,1.31l.117.383a5.861,5.861,0,0,1-1.6,2.688l-.178.108a8.092,8.092,0,0,1-2.794,1.161,8.316,8.316,0,0,1-5.495-1.164,36.422,36.422,0,0,1-3.175-2.34c-.538-.5-1.074-1-1.61-1.5s-1.069-1.04-1.592-1.616l-3.1-3.464L24.085,38.1a12.275,12.275,0,0,0-1.944-2.086,1.442,1.442,0,0,0-.343-.262l-.162.156a2.4,2.4,0,0,1-.7.79q.335,1.107.774,2.205t.9,2.27l2.383,6.463q.6,1.445,1.048,2.933A28.078,28.078,0,0,1,27.113,53.6q.448,1.124.795,2.275a19.691,19.691,0,0,1,.477,2.426A3.575,3.575,0,0,1,25.78,61.822Z" transform="translate(123.193 0) rotate(17)" fill="#00a551"/>
    <path id="Path_161" data-name="Path 161" d="M5.714,11.65q-.1.031-1.456.391T1.444,9.853L.584,7.02A12.1,12.1,0,0,1,.252,5.757l-.1-.335Q-.625,1.145,2.595.167a3.6,3.6,0,0,1,2.443.1A4.693,4.693,0,0,1,7.426,3.475,13.586,13.586,0,0,1,8.139,5.3a17.746,17.746,0,0,1,.845,2.26,4.145,4.145,0,0,1,.175,1.1A5.343,5.343,0,0,1,5.714,11.65ZM22.182,53.963q-2.307.7-4.729-1.921a65.089,65.089,0,0,1-5.612-12.091l-.61-1.494Q10.076,35.347,10,35.265,7.944,29.7,7.261,27.285,6.328,24.212,5.914,22.5a6.263,6.263,0,0,1,.4-4.369,3.936,3.936,0,0,1,2.239-1.783,3.754,3.754,0,0,1,3.366.552,4.57,4.57,0,0,1,1.787,2.6l.156.687.822,2.53,1.048,2.935c.236.662.482,1.3.742,1.926l1.155,3.112q.746,1.765,1.4,3.561l3.562,8.621a56.174,56.174,0,0,1,2.317,5.905Q25.351,53,22.182,53.963Z" transform="translate(152.899 6.211) rotate(17)" fill="#00a551"/>
    <path id="Path_162" data-name="Path 162" d="M35.763,43a5.389,5.389,0,0,1-.735.17,2.656,2.656,0,0,1-1.291-.447l-.7-.574a15.022,15.022,0,0,1-3-3.5,2.872,2.872,0,0,0-.305-.483,62.27,62.27,0,0,1-3.939-7.616A14.165,14.165,0,0,1,25.217,29l-.087.236a19.939,19.939,0,0,1-4.32,7.711l-.048.013A10.873,10.873,0,0,1,15.918,40a9.641,9.641,0,0,1-8.07-1.01Q3.157,36.326.9,28.88a29.093,29.093,0,0,1,.148-14.888A23,23,0,0,1,3.776,7.446,9.875,9.875,0,0,1,5.623,4.891,15.564,15.564,0,0,1,12.631.507,9.637,9.637,0,0,1,18.3.359a5.387,5.387,0,0,1,1.492.6.044.044,0,0,0,.062.032A3.9,3.9,0,0,1,21.77,3.134a2.343,2.343,0,0,1,.152.847,2.687,2.687,0,0,1-.157.519q-.559,1.272-4.352,2.423l-.623.19a14.724,14.724,0,0,0-4.264,2.027A14.789,14.789,0,0,0,9.2,15.292a22.451,22.451,0,0,0-.066,11.351,12.042,12.042,0,0,0,1.9,3.83q1.346,1.847,2.837,1.394,1.342-.407,3.29-3.674a.045.045,0,0,1,.032-.062,42.62,42.62,0,0,0,2.33-5.113l.662-1.618a13.121,13.121,0,0,1,.534-1.523,11.194,11.194,0,0,0,.5-1.465l.333-1.149a9.257,9.257,0,0,1-.333-1.788,20.157,20.157,0,0,1-.26-2.753l.184-.948q.2-1.056,1.931-1.582A11.363,11.363,0,0,1,24.351,9.9q1.814-.238,2.092.677l.039.3c.011.034.046.058.1.075a2.733,2.733,0,0,1,.335.158,2.465,2.465,0,0,1,.53,1.048l.36,1.358,1.425,4.866q1.093,3.6,1.927,5.656.263.863,1.455,3.753,1.26,2.766,1.67,3.426a49.3,49.3,0,0,0,3.075,5.466l.291.438a5.3,5.3,0,0,1,.881,1.517,2.932,2.932,0,0,1-.639,3.077A4.964,4.964,0,0,1,35.763,43ZM18.653,12.737a.171.171,0,0,0-.134-.013l-.121.038a.044.044,0,0,1-.062-.032l.1-.188a.106.106,0,0,1,.08,0,.3.3,0,0,1,.075.082A.394.394,0,0,1,18.653,12.737Z" transform="translate(171.074 19.115) rotate(17)" fill="#00a551"/>
  </g>
</svg>
