<svg xmlns="http://www.w3.org/2000/svg" xmlns:xlink="http://www.w3.org/1999/xlink" width="96" height="96" viewBox="0 0 96 96">
  <defs>
    <filter id="Ellipse_1" x="0" y="0" width="96" height="96" filterUnits="userSpaceOnUse">
      <feOffset dy="10" input="SourceAlpha"/>
      <feGaussianBlur stdDeviation="10" result="blur"/>
      <feFlood flood-color="#f10000" flood-opacity="0.4"/>
      <feComposite operator="in" in2="blur"/>
      <feComposite in="SourceGraphic"/>
    </filter>
  </defs>
  <g id="Group_9" data-name="Group 9" transform="translate(-197.5 -1185.5)">
    <g id="Polygon_3" data-name="Polygon 3" transform="translate(215.5 1193.5)" fill="#fff">
      <path d="M35.369,1a4,4,0,0,1,4.484,1.2l2.7,3.268a4,4,0,0,0,2.422,1.4l4.179.7a4,4,0,0,1,3.282,3.282l.7,4.179a4,4,0,0,0,1.4,2.422l3.268,2.7A4,4,0,0,1,59,24.631L57.522,28.6a4,4,0,0,0,0,2.8L59,35.369a4,4,0,0,1-1.2,4.484l-3.268,2.7a4,4,0,0,0-1.4,2.422l-.7,4.179a4,4,0,0,1-3.282,3.282l-4.179.7a4,4,0,0,0-2.422,1.4l-2.7,3.268A4,4,0,0,1,35.369,59L31.4,57.522a4,4,0,0,0-2.8,0L24.631,59a4,4,0,0,1-4.484-1.2l-2.7-3.268a4,4,0,0,0-2.422-1.4l-4.179-.7a4,4,0,0,1-3.282-3.282l-.7-4.179a4,4,0,0,0-1.4-2.422L2.2,39.852A4,4,0,0,1,1,35.369L2.478,31.4a4,4,0,0,0,0-2.8L1,24.631a4,4,0,0,1,1.2-4.484l3.268-2.7a4,4,0,0,0,1.4-2.422l.7-4.179a4,4,0,0,1,3.282-3.282l4.179-.7a4,4,0,0,0,2.422-1.4l2.7-3.268A4,4,0,0,1,24.631,1L28.6,2.478a4,4,0,0,0,2.8,0Z" stroke="none"/>
      <path d="M 36.76646041870117 2.743659973144531 C 36.52787017822266 2.743659973144531 36.29290008544922 2.786197662353516 36.06806945800781 2.870109558105469 L 32.09789276123047 4.351799011230469 C 31.42453956604004 4.603099822998047 30.71870040893555 4.730518341064453 29.99999046325684 4.730518341064453 C 29.28126907348633 4.730518341064453 28.57542991638184 4.603099822998047 27.902099609375 4.351799011230469 L 23.93191909790039 2.870109558105469 C 23.70706176757813 2.786186218261719 23.47214126586914 2.743637084960938 23.23368835449219 2.743659973144531 C 22.63410186767578 2.743709564208984 22.07149887084961 3.008739471435547 21.69013977050781 3.470809936523438 L 18.99272155761719 6.739067077636719 C 18.07357025146484 7.852729797363281 16.78311920166016 8.597766876220703 15.35905838012695 8.836959838867188 L 11.17995834350586 9.538856506347656 C 10.33951950073242 9.680019378662109 9.680000305175781 10.33953857421875 9.538841247558594 11.17996978759766 L 8.836940765380859 15.35907745361328 C 8.597770690917969 16.78311920166016 7.852729797363281 18.07357788085938 6.739059448242188 18.99273681640625 L 3.470790863037109 21.69016647338867 C 2.813529968261719 22.23262786865234 2.572139739990234 23.13353729248047 2.870109558105469 23.93194961547852 L 4.351799011230469 27.90210723876953 C 4.856700897216797 29.25496864318848 4.856700897216797 30.74505805969238 4.351799011230469 32.097900390625 L 2.870121002197266 36.06808853149414 C 2.572139739990234 36.86650085449219 2.813541412353516 37.76738739013672 3.470809936523438 38.30986022949219 L 6.739059448242188 41.00727081298828 C 7.852748870849609 41.92642974853516 8.597801208496094 43.21689605712891 8.836948394775391 44.64093780517578 L 9.538860321044922 48.82003784179688 C 9.680019378662109 49.66047668457031 10.33953857421875 50.31999969482422 11.17996978759766 50.46115875244141 L 15.35906982421875 51.16305923461914 C 16.78311157226563 51.40222930908203 18.07357025146484 52.14727020263672 18.99272918701172 53.26093673706055 L 21.69015884399414 56.52919769287109 C 22.07154846191406 56.99130630493164 22.63410186767578 57.25634002685547 23.23355865478516 57.25634002685547 C 23.47216033935547 57.25634002685547 23.70713043212891 57.21379852294922 23.93193817138672 57.12989807128906 L 27.902099609375 55.64820861816406 C 28.575439453125 55.39690780639648 29.28128051757813 55.26948928833008 30 55.26948928833008 C 30.71870994567871 55.26948928833008 31.4245491027832 55.39690780639648 32.09789276123047 55.64820861816406 L 36.06808090209961 57.12988662719727 C 36.29290008544922 57.21379852294922 36.52786254882813 57.25634002685547 36.76646041870117 57.25634002685547 C 37.36590957641602 57.25634002685547 37.92845916748047 56.99130630493164 38.30985260009766 56.52919769287109 L 41.00727081298828 53.26094818115234 C 41.92642211914063 52.14727783203125 43.21688079833984 51.40222930908203 44.64093017578125 51.16305923461914 L 48.82003784179688 50.46114730834961 C 49.66048049926758 50.31998825073242 50.31999206542969 49.66047668457031 50.46115112304688 48.82003784179688 L 51.16304779052734 44.64093017578125 C 51.4022216796875 43.21688842773438 52.14727020263672 41.92642974853516 53.26094055175781 41.00727081298828 L 56.52920913696289 38.30982971191406 C 57.18647003173828 37.76737976074219 57.42786026000977 36.86647796630859 57.12989044189453 36.06805801391602 L 55.64818954467773 32.09787750244141 C 55.14331817626953 30.74503898620605 55.14331817626953 29.25494766235352 55.64820098876953 27.90210723876953 L 57.12989044189453 23.93193817138672 C 57.42786026000977 23.13351821899414 57.18647003173828 22.23260879516602 56.52920150756836 21.69014739990234 L 53.26094055175781 18.99272918701172 C 52.14727020263672 18.07356643676758 51.4022216796875 16.78310775756836 51.16304779052734 15.35906982421875 L 50.46115112304688 11.17996978759766 C 50.31999206542969 10.33952713012695 49.66046905517578 9.680007934570313 48.82003784179688 9.538848876953125 L 44.64093780517578 8.836948394775391 C 43.21689987182617 8.5977783203125 41.92643737792969 7.852737426757813 41.00727844238281 6.739067077636719 L 38.30985260009766 3.470798492431641 C 37.92845916748047 3.008689880371094 37.36590957641602 2.743659973144531 36.76646041870117 2.743659973144531 M 36.76646423339844 0.7436561584472656 C 37.93690490722656 0.7436561584472656 39.07691192626953 1.258186340332031 39.85234069824219 2.197719573974609 L 42.54977035522461 5.465988159179688 C 43.1626091003418 6.208518981933594 44.02272033691406 6.705108642578125 44.97220993041992 6.864578247070313 L 49.15130996704102 7.566478729248047 C 50.83322143554688 7.848968505859375 52.15103149414063 9.166786193847656 52.43352127075195 10.84868621826172 L 53.13542175292969 15.02779769897461 C 53.29489135742188 15.97727966308594 53.79148101806641 16.83738708496094 54.53401947021484 17.45023727416992 L 57.80228042602539 20.14765930175781 C 59.11761093139648 21.23324966430664 59.59996032714844 23.03342819213867 59.0036506652832 24.6312370300293 L 57.5219612121582 28.60140800476074 C 57.18532943725586 29.50341796875 57.18532943725586 30.49657821655273 57.5219612121582 31.39859771728516 L 59.0036506652832 35.36875915527344 C 59.59996032714844 36.96657562255859 59.11761093139648 38.76674652099609 57.80228042602539 39.85232543945313 L 54.53401947021484 42.54975891113281 C 53.79148101806641 43.16260528564453 53.29489135742188 44.02272033691406 53.13542175292969 44.97219848632813 L 52.43352127075195 49.15130615234375 C 52.15103149414063 50.83321762084961 50.83322143554688 52.15102767944336 49.15132141113281 52.43351745605469 L 44.97219848632813 53.13542938232422 C 44.02272033691406 53.29489898681641 43.1626091003418 53.79147720336914 42.54977035522461 54.53401947021484 L 39.85234069824219 57.80227661132813 C 39.07697296142578 58.74172973632813 37.93679809570313 59.25634002685547 36.76646423339844 59.25634002685547 C 36.29821014404297 59.25634002685547 35.82537078857422 59.17405319213867 35.36877059936523 59.00364685058594 L 31.39859962463379 57.52196884155273 C 30.94759559631348 57.3536491394043 30.47380065917969 57.26948928833008 30.0000057220459 57.26948928833008 C 29.52621078491211 57.26948928833008 29.05241584777832 57.3536491394043 28.60140991210938 57.52196884155273 L 24.63124084472656 59.00365829467773 C 24.17473602294922 59.17402267456055 23.70171356201172 59.25634384155273 23.23355865478516 59.25634384155273 C 22.0631217956543 59.25634384155273 20.92309951782227 58.7418098449707 20.14767074584961 57.80227661132813 L 17.45024108886719 54.53401947021484 C 16.8373908996582 53.79147720336914 15.97729110717773 53.29489898681641 15.02780151367188 53.13542938232422 L 10.84870147705078 52.43352890014648 C 9.166790008544922 52.15103912353516 7.848979949951172 50.83321762084961 7.566490173339844 49.15131759643555 L 6.864578247070313 44.97220611572266 C 6.705120086669922 44.02272033691406 6.208530426025391 43.16260528564453 5.465988159179688 42.54976654052734 L 2.197731018066406 39.85234832763672 C 0.8824005126953125 38.76675796508789 0.4000396728515625 36.96659088134766 0.9963607788085938 35.36877822875977 L 2.478038787841797 31.39860725402832 C 2.814678192138672 30.49659729003906 2.814678192138672 29.50342750549316 2.478038787841797 28.60141754150391 L 0.9963493347167969 24.63124847412109 C 0.4000396728515625 23.03343963623047 0.8823890686035156 21.23326873779297 2.197719573974609 20.14767837524414 L 5.465980529785156 17.45024871826172 C 6.208518981933594 16.83739852905273 6.705101013183594 15.97729873657227 6.864570617675781 15.02780914306641 L 7.566471099853516 10.84869766235352 C 7.848960876464844 9.166797637939453 9.166778564453125 7.848979949951172 10.84867858886719 7.566486358642578 L 15.02779006958008 6.864589691162109 C 15.97727966308594 6.705108642578125 16.83737945556641 6.208526611328125 17.45022964477539 5.465988159179688 L 20.14765167236328 2.197727203369141 C 20.92301559448242 1.258274078369141 22.06320190429688 0.743743896484375 23.23353958129883 0.7436599731445313 C 23.7017936706543 0.7436256408691406 24.17462539672852 0.8259429931640625 24.63122940063477 0.9963493347167969 L 28.60140037536621 2.478038787841797 C 29.05240440368652 2.646358489990234 29.52619743347168 2.730518341064453 29.99999046325684 2.730518341064453 C 30.47378540039063 2.730518341064453 30.94758033752441 2.646358489990234 31.39859008789063 2.478038787841797 L 35.36877059936523 0.9963493347167969 C 35.82527160644531 0.8259773254394531 36.29830932617188 0.7436561584472656 36.76646423339844 0.7436561584472656 Z" stroke="none" fill="rgba(241,0,0,0.3)"/>
    </g>
    <g transform="matrix(1, 0, 0, 1, 197.5, 1185.5)" filter="url(#Ellipse_1)">
      <circle id="Ellipse_1-2" data-name="Ellipse 1" cx="18" cy="18" r="18" transform="translate(30 20)" fill="#f10000"/>
    </g>
    <g id="Group_12" data-name="Group 12" transform="translate(-3503.468 392.502)">
      <path id="Subtraction_2" data-name="Subtraction 2" d="M8.679,14.785H6.728l-.3-4.2h0a.323.323,0,0,0-.32-.294H6.1a.321.321,0,0,0-.31.317c0,.008,0,.015,0,.023h0l.3,4.155H4.129L3.075,8.546a.323.323,0,0,0-.252-.261,3.536,3.536,0,0,1,.711-7c.08,0,.162,0,.242.008a3.536,3.536,0,0,1,3.3,3.527.321.321,0,0,0,.643,0,4.164,4.164,0,0,0-1.9-3.5A4.5,4.5,0,0,1,13.338,3.3a.321.321,0,1,0,.62-.171,5.083,5.083,0,0,0-.767-1.607,3.487,3.487,0,0,1,1.264-.236h.009a3.536,3.536,0,0,1,.714,7,.324.324,0,0,0-.252.261l-1.055,6.239H11.917l.3-4.155h0c0-.008,0-.015,0-.023a.321.321,0,0,0-.31-.317h-.012a.323.323,0,0,0-.32.294h0l-.3,4.2H9.322V11.249a.321.321,0,1,0-.643,0v3.535Z" transform="translate(3739.968 821.998)" fill="#fff"/>
      <path id="Subtraction_1" data-name="Subtraction 1" d="M9.642,2.571H0V0H9.642V2.571Z" transform="translate(3744.147 837.426)" fill="#fff"/>
    </g>
  </g>
</svg>
