<svg xmlns="http://www.w3.org/2000/svg" xmlns:xlink="http://www.w3.org/1999/xlink" width="96" height="96" viewBox="0 0 96 96">
  <defs>
    <filter id="Ellipse_1" x="0" y="0" width="96" height="96" filterUnits="userSpaceOnUse">
      <feOffset dy="10" input="SourceAlpha"/>
      <feGaussianBlur stdDeviation="10" result="blur"/>
      <feFlood flood-color="#f10000" flood-opacity="0.4"/>
      <feComposite operator="in" in2="blur"/>
      <feComposite in="SourceGraphic"/>
    </filter>
  </defs>
  <g id="Group_9" data-name="Group 9" transform="translate(-197.5 -1185.5)">
    <g id="Path_9" data-name="Path 9" transform="translate(187.488 1193.5)" fill="#fff">
      <path d="M83.62,7.553l-25-7.5a1.251,1.251,0,0,0-.718,0l-25,7.5a1.25,1.25,0,0,0-.892,1.2v27.5c0,11.052,16.854,20.884,25.879,23.694a1.25,1.25,0,0,0,.75,0C67.655,57.133,84.51,47.3,84.51,36.249V8.75A1.25,1.25,0,0,0,83.62,7.553Z" stroke="none"/>
      <path d="M 58.26204299926758 2.033489227294922 L 34.01198577880859 9.308509826660156 L 34.01198577880859 36.2490234375 C 34.01198577880859 38.43189239501953 34.82821655273438 40.73373413085938 36.43801116943359 43.09062194824219 C 37.93205261230469 45.27805328369141 40.07309722900391 47.47258377075195 42.80168151855469 49.61328125 C 48.21334838867188 53.85897445678711 54.45524215698242 56.7425537109375 58.2657356262207 57.96391677856445 C 62.07391738891602 56.74192428588867 68.31181335449219 53.85811233520508 73.72103881835938 49.61334228515625 C 76.44921112060547 47.47246551513672 78.58992767333984 45.27791213989258 80.08374786376953 43.09063339233398 C 81.69345855712891 40.733642578125 82.50965118408203 38.43180084228516 82.50965118408203 36.2490234375 L 82.50965118408203 9.307773590087891 L 58.26204299926758 2.033489227294922 M 58.26205062866211 0.000492095947265625 C 58.3829231262207 0.000492095947265625 58.5037956237793 0.01801300048828125 58.62080001831055 0.0530548095703125 L 83.61964416503906 7.552711486816406 C 84.14801788330078 7.711624145507813 84.50975799560547 8.198272705078125 84.50965118408203 8.750083923339844 L 84.50965118408203 36.2490234375 C 84.50965118408203 47.30095291137695 67.65544128417969 57.13301467895508 58.64085006713867 59.94292449951172 C 58.518798828125 59.98130416870117 58.39232635498047 60.00049209594727 58.2658576965332 60.00049209594727 C 58.13938522338867 60.00049209594727 58.01292037963867 59.98130416870117 57.8908805847168 59.94292449951172 C 48.86620330810547 57.13312149047852 32.01198577880859 47.30106353759766 32.01198577880859 36.2490234375 L 32.01198577880859 8.750202178955078 C 32.01210784912109 8.197681427001953 32.37500762939453 7.710792541503906 32.90444946289063 7.552711486816406 L 57.90330123901367 0.0530548095703125 C 58.02030563354492 0.01801300048828125 58.14117813110352 0.000492095947265625 58.26205062866211 0.000492095947265625 Z" stroke="none" fill="rgba(241,0,0,0.3)"/>
    </g>
    <g transform="matrix(1, 0, 0, 1, 197.5, 1185.5)" filter="url(#Ellipse_1)">
      <circle id="Ellipse_1-2" data-name="Ellipse 1" cx="18" cy="18" r="18" transform="translate(30 20)" fill="#f10000"/>
    </g>
    <path id="Polygon_2" data-name="Polygon 2" d="M12,0l3.6,7.654L24,8.709l-6.175,5.785L19.416,22.8,12,18.721,4.584,22.8l1.591-8.306L0,8.709,8.4,7.654Z" transform="translate(233.5 1212.1)" fill="#fff"/>
  </g>
</svg>

