<svg xmlns="http://www.w3.org/2000/svg" width="32" height="32" viewBox="0 0 32 32">
  <g id="Group_144" data-name="Group 144" transform="translate(-67 -311)">
    <rect id="Rectangle_103" data-name="Rectangle 103" width="32" height="32" rx="5" transform="translate(67 311)" fill="#fe0101"/>
    <path id="Path_139" data-name="Path 139" d="M3077.991,497.116a18.8,18.8,0,0,0-.319-3.415,2.251,2.251,0,0,0-2-1.875,24.528,24.528,0,0,0-2.594-.211c-1.391-.062-2.783-.08-4.59-.083-.834.008-2.084.01-3.333.063a17.971,17.971,0,0,0-2.9.245,2.334,2.334,0,0,0-1.947,1.792,7.339,7.339,0,0,0-.154.929,31.356,31.356,0,0,0-.136,4.283,16.512,16.512,0,0,0,.254,2.881,2.429,2.429,0,0,0,2.01,1.974,17.879,17.879,0,0,0,2.413.22c1.72.08,3.441.084,5.162.073,1.61-.01,3.219-.032,4.823-.164a5.309,5.309,0,0,0,1.436-.235,2.473,2.473,0,0,0,1.654-2.176A27.171,27.171,0,0,0,3077.991,497.116Zm-10.709,3.414V495l4.494,2.767Z" transform="translate(-2986 -170.532)" fill="#fefafa"/>
  </g>
</svg>
